<svg viewBox="0 0 256 264" xmlns="http://www.w3.org/2000/svg"><path d="M255.856 59.62c.095.351.144.713.144 1.077v56.568c0 1.478-.79 2.843-2.073 3.578L206.45 148.18v54.18a4.135 4.135 0 01-2.062 3.579l-99.108 57.234a4.297 4.297 0 01-.56.243c-.074.028-.147.048-.222.07a4.117 4.117 0 01-2.144 0l-.2-.063a4.439 4.439 0 01-.587-.258L2.073 205.938A4.133 4.133 0 010 202.361V32.656c0-.372.052-.744.15-1.104.025-.1.066-.193.095-.293.037-.121.073-.243.119-.36.052-.125.115-.243.179-.36.042-.079.079-.163.126-.239.063-.1.14-.19.209-.283.055-.072.106-.147.166-.214.072-.08.156-.15.235-.223.063-.058.12-.12.186-.172.086-.067.18-.121.27-.179.055-.034.104-.078.163-.109l49.6-28.63a4.121 4.121 0 014.125 0l49.6 28.63c.065.034.112.078.168.112.087.055.179.109.263.176.07.055.127.117.19.175.078.072.16.14.23.22.063.07.114.148.169.22.069.091.142.182.205.281.049.079.087.163.129.244.06.115.123.233.174.357.047.12.082.242.12.363.03.1.068.192.093.291.049.36.093.722.093 1.088v106.1l41.137-23.768V88.16c0-.363.047-.724.142-1.074.028-.1.068-.196.097-.295.037-.119.073-.243.117-.357.054-.125.118-.246.18-.363.043-.079.08-.163.127-.239.062-.1.139-.19.208-.283.056-.073.106-.147.168-.216.07-.079.153-.149.233-.222.063-.059.12-.12.188-.173.085-.066.178-.12.266-.177.058-.036.107-.079.168-.112l49.6-28.63a4.122 4.122 0 014.126 0l49.6 28.63c.065.036.113.079.17.115.085.055.177.107.261.174.07.055.125.117.187.173.08.073.163.143.233.223.063.07.113.145.167.216.069.093.144.182.208.282.048.079.086.163.128.242.059.118.121.235.175.36.045.116.08.238.117.357.03.102.069.196.097.297z" fill="#FF2D20"/></svg>
