<svg viewBox="0 0 256 228" xmlns="http://www.w3.org/2000/svg"><path d="M210.483 73.824a171.49 171.49 0 00-8.24-2.597c.465-1.9.893-3.777 1.273-5.621 6.238-30.281 2.16-54.676-11.769-62.708-13.355-7.7-35.196.329-57.254 19.526a171.23 171.23 0 00-6.375 5.848 155.866 155.866 0 00-4.241-3.917C100.759 3.829 77.587-4.822 63.673 3.233 50.33 10.957 46.379 33.89 51.986 62.588a170.974 170.974 0 001.892 8.48c-3.28.932-6.445 1.924-9.474 2.98C17.309 83.498 0 98.307 0 113.668c0 15.865 18.582 31.778 46.812 41.427a145.52 145.52 0 006.921 2.165 167.467 167.467 0 00-2.01 9.138c-5.354 28.2-1.173 50.591 12.134 58.266 13.744 7.926 36.812-.22 59.273-19.855a145.567 145.567 0 005.342-4.923 168.064 168.064 0 006.92 6.314c21.758 18.722 43.246 26.282 56.54 18.586 13.731-7.949 18.194-32.003 12.4-61.268a145.016 145.016 0 00-1.535-6.842c1.62-.48 3.21-.99 4.76-1.53C235.179 145.174 256 129.606 256 113.668c0-15.42-19.956-31.074-45.517-39.844zM128.001 180.441c-36.868 0-66.764-29.896-66.764-66.764 0-36.868 29.896-66.764 66.764-66.764 36.868 0 66.764 29.896 66.764 66.764 0 36.868-29.896 66.764-66.764 66.764z" fill="#61DAFB"/><circle cx="128" cy="113.677" r="20.5" fill="#61DAFB"/></svg>
